<svg xmlns="http://www.w3.org/2000/svg" viewBox="0 0 32 32" fill="none">
  <path d="M14 4C8.48 4 4 8.03 4 13c0 2.7 1.06 5.16 2.8 6.98C6.3 20.9 6 22 6 23c0 2.76 2.24 5 5 5 .9 0 1.74-.24 2.46-.66.76.42 1.64.66 2.54.66" stroke="#6366F1" stroke-width="1.5" stroke-linecap="round" stroke-linejoin="round"/>
  <path d="M16 28c.9 0 1.78-.24 2.54-.66.72.42 1.56.66 2.46.66 2.76 0 5-2.24 5-5 0-1-.3-2.1-.8-3.02C26.94 18.16 28 15.7 28 13c0-4.97-4.48-9-10-9" stroke="#6366F1" stroke-width="1.5" stroke-linecap="round" stroke-linejoin="round"/>
  <path d="M16 4v24" stroke="#6366F1" stroke-width="1" opacity="0.3"/>
</svg>
